<svg height="2500" viewBox="137.4 91.9 2165 2307.8" width="2288" xmlns="http://www.w3.org/2000/svg"><path d="m323.6 461.1h1978.8v1938.6h-1969.2c-5.3 0-9.6-4.3-9.6-9.6z" fill="#36697f"/><path d="m482.9 1717.6-345.5 211.4v-1627.2l345.5-209.9z" fill="#7dc6dd"/><path d="m482.9 91.9h1652.2c5.5 0 9.9 4.4 9.9 9.9v1615.8h-1662.1z" fill="#37a5cc"/><path d="m1659.2 1035.5c-6.7-22.8-17.1-44.1-31-63.5-13.9-18.9-31.6-36-52.8-50.9-17.8-12.5-38.5-23.2-61.8-32 19.4-9.6 37.1-20.6 52.6-33 19-15.1 35.2-31.8 48.1-49.8 12.9-17.9 22.8-37.2 29.4-57.1 6.7-20 10.1-40.6 10.1-61.2 0-44.4-8.5-84-25.4-117.9s-40.9-62.8-71.4-86c-30.4-22.7-67.4-40-110-51.6-42.4-11.5-89.6-17.3-140.3-17.3s-91.7 6.4-132.5 19c-40.9 12.6-77 30.5-107.3 53.1-30.4 23.1-54.6 51-72 82.9-17.4 32-26.2 67.9-26.2 106.8v6h207.4v-6c0-16.1 3.5-30.8 10.5-43.6 7-12.9 16.8-24.1 29.1-33.4 11.9-8.9 26.2-15.9 42.3-20.8 16.3-4.9 34.1-7.4 52.9-7.4s43.2 2.9 60.4 8.6c17 5.7 31.1 13.6 41.9 23.6 10.9 10.5 19.3 23.1 24.8 37.4 5.6 14.5 8.4 30.8 8.4 48.5s-2.8 35.1-8.4 50.5c-5.5 15.1-13.8 28.1-24.9 38.7-11.8 12.1-27.6 21.6-46.8 28.3-19.4 6.8-43 10.2-70.1 10.2h-112.1v150.8h112.1c25.8 0 49.3 2.7 69.9 8.1 20.3 5.3 37.9 13.6 52.5 24.5 14 10.9 24.9 25 32.4 42 7.6 17.2 11.4 38.3 11.4 62.7s-3.3 37-9.7 52.5c-6.4 15.3-15.8 28.4-28.3 39-12.8 11.7-28.9 20.8-47.9 26.9-19.3 6.2-41.4 9.3-65.7 9.3s-41.5-3-59.3-9c-17.8-5.9-33.3-14.3-46.3-25-13.2-10.1-23.4-22.4-30.4-36.8-7-14.3-10.6-30.3-10.6-47.4v-6h-207.4v6c0 46.2 10 86.9 29.8 121.1 19.7 34.1 46.4 62.6 79.1 84.9 32.6 22.6 70.4 39.7 112.3 50.8 41.7 11 85 16.6 128.7 16.6s98.8-6.2 142.8-18.6c44.2-12.4 82.9-30.8 115.1-54.7 32.3-23.6 58.1-53.3 76.6-88.2s27.9-75.2 27.9-119.6-3.4-49.6-10-72.3zm-499.1 1186.6h-71v-208.5c0-11.1.3-22.8.8-35.2s1.3-25.3 2.2-38.6h-2.1c-2 10.5-3.8 19.4-5.3 26.8s-3.1 13.5-4.8 18.3l-79.7 237.2h-57.9l-80.6-235.1c-1.1-3.2-2.5-8.8-4.2-16.7-1.8-7.9-3.8-18.1-6.1-30.7h-2.1c1.2 16.3 2 31.7 2.4 46.5.4 14.7.6 28.6.6 41.6v194.3h-64.8v-346.1h104.5l69.6 207.6c2.9 7.7 5.3 15.4 7.1 22.9 1.8 7.6 3.5 15 5.1 22.4h1.4c2.1-8.8 4.3-17.1 6.5-24.7s4.4-14.7 6.6-21.1l69.6-207.1h102.2v346.1zm44.8 0 120.2-346.1h85l117.9 346.1h-78.6l-23-73.6h-121.1l-22.7 73.6zm116.3-132.7h88.2l-37.2-122.4c-1.5-4.5-2.7-8.5-3.6-11.9-.8-3.5-1.6-7.8-2.2-13.2h-1.8c-.8 4.7-1.6 8.9-2.4 12.6s-1.9 7.6-3.1 11.6zm519.3 132.7h-85.2l-58.1-113.9c-1.1-2.1-2.1-5.1-3.2-8.9-1.1-3.9-2.2-8.5-3.4-14h-.9c-.8 2.6-1.8 5.9-3 9.9s-2.8 8.6-4.8 13.8l-58.4 113.2h-85.7l105.5-173.3-96.5-172.8h87.5l48.3 105c1.8 4 3.6 8.4 5.3 13.3 1.7 4.8 3.3 10.1 4.8 15.7h.9c1.1-3.7 2.4-8 4.1-12.9s3.8-10.6 6.2-17l53.8-104h80l-99 171.6 102 174.5z" fill="#fff"/></svg>